<svg width="680" height="396" viewBox="0 0 680 396" fill="none" xmlns="http://www.w3.org/2000/svg">
<g clip-path="url(#clip0_5_16492)">
<path d="M678.715 338.782H626.283C625.573 338.782 624.998 339.357 624.998 340.066C624.998 340.776 625.573 341.351 626.283 341.351H678.715C679.425 341.351 680 340.776 680 340.066C680 339.357 679.425 338.782 678.715 338.782Z" fill="#353766"/>
<path d="M490.784 338.782H37.2767C36.5668 338.782 35.9913 339.357 35.9913 340.066C35.9913 340.776 36.5668 341.351 37.2767 341.351H490.784C491.494 341.351 492.07 340.776 492.07 340.066C492.07 339.357 491.494 338.782 490.784 338.782Z" fill="#353766"/>
<path d="M27.4948 338.568H11.153C10.3414 338.568 9.68337 339.226 9.68337 340.037V340.096C9.68337 340.907 10.3414 341.565 11.153 341.565H27.4948C28.3064 341.565 28.9644 340.907 28.9644 340.096V340.037C28.9644 339.226 28.3064 338.568 27.4948 338.568Z" fill="#353766"/>
<path d="M676.949 184.947L657.325 167.188V238.971H642.282V212.573H620.7V192.717H582.763L330.19 238.971H316.565V212.573L283.77 179.805H264.03V218.926H238.078V196.707H191.641V224.77H131.467V200.372L76.5244 217.621V271.208H39.2434V235.054H0C0 235.054 36.6254 95.9026 158.28 95.9026C221.398 95.4145 254.429 134.917 287.455 134.917C320.481 134.917 354.172 0 484.002 0C613.832 0 676.949 111.751 676.949 184.947Z" fill="#ECEDF1"/>
<path d="M485.634 148.313H142.256C136.657 148.313 132.118 152.848 132.118 158.442C132.118 164.036 136.657 168.571 142.256 168.571H485.634C491.233 168.571 495.772 164.036 495.772 158.442C495.772 152.848 491.233 148.313 485.634 148.313Z" fill="#CCD2E9"/>
<path d="M307.409 175.922C317.07 175.922 324.903 168.096 324.903 158.442C324.903 148.788 317.07 140.962 307.409 140.962C297.747 140.962 289.914 148.788 289.914 158.442C289.914 168.096 297.747 175.922 307.409 175.922Z" fill="#CCD2E9"/>
<path d="M307.409 150.599C303.072 150.599 299.559 154.109 299.559 158.442C299.559 162.775 303.072 166.285 307.409 166.285C311.745 166.285 315.258 162.775 315.258 158.442C315.258 154.109 311.745 150.599 307.409 150.599Z" fill="white"/>
<path d="M192.948 175.922C202.61 175.922 210.442 168.096 210.442 158.442C210.442 148.788 202.61 140.962 192.948 140.962C183.286 140.962 175.453 148.788 175.453 158.442C175.453 168.096 183.286 175.922 192.948 175.922Z" fill="#8794C4"/>
<path d="M192.948 150.599C188.612 150.599 185.098 154.109 185.098 158.442C185.098 162.775 188.612 166.285 192.948 166.285C197.284 166.285 200.797 162.775 200.797 158.442C200.797 154.109 197.284 150.599 192.948 150.599Z" fill="white"/>
<path d="M192.948 9.92804C173.17 9.92804 157.136 25.9482 157.136 45.7101C157.136 79.2017 185.098 128.872 192.948 128.872C200.797 128.872 228.759 80.8371 228.759 45.7101C228.759 25.9482 212.726 9.92804 192.948 9.92804Z" fill="#8794C4"/>
<path d="M192.948 25.9396C182.022 25.9396 173.161 34.7888 173.161 45.7101C173.161 56.6314 182.017 65.4805 192.948 65.4805C203.874 65.4805 212.734 56.6314 212.734 45.7101C212.734 34.7931 203.878 25.9396 192.948 25.9396Z" fill="white"/>
<path d="M617.191 338.761C621.248 338.761 630.962 339.69 641.429 333.936C649.51 329.496 654.065 323.4 656.147 320.176C652.381 320.33 648.041 320.741 643.285 321.627C638.447 322.526 634.184 323.729 630.568 324.967C635.011 322.389 642.196 317.466 648.516 308.994C655.564 299.545 658.152 290.225 659.198 285.032C653.624 286.505 647.017 288.714 639.904 292.113C633.978 294.943 628.944 298 624.8 300.864C626.626 298.132 628.408 294.947 629.921 291.278C636.223 276.016 634.068 261.567 632.312 254.101C625.593 256.459 617.332 260.013 608.51 265.428C599.714 270.827 592.828 276.568 587.691 281.474C548.083 284.403 508.476 287.331 468.872 290.259C462.848 285.897 455.097 281.046 445.598 276.752C433.999 271.512 423.378 268.716 415.023 267.167C417.225 272.745 420.824 280.117 426.741 287.751C434.012 297.135 441.896 303.18 447.509 306.81C445.285 305.813 442.882 304.884 440.302 304.07C426.497 299.725 413.806 300.727 404.996 302.452C409.178 307.512 416.676 315.244 428.215 321.186C436.587 325.498 444.317 327.441 449.908 328.375C445.277 327.326 439.274 326.401 432.247 326.414C424.912 326.427 418.682 327.454 413.934 328.593C416.051 330.25 419.29 332.352 423.635 333.713C425.764 334.377 427.727 334.732 429.411 334.912C427.885 336.192 426.36 337.476 424.83 338.756H617.195L617.191 338.761Z" fill="#A0C09D"/>
<path d="M614.881 338.136C619.997 337.81 625.923 337.065 632.397 335.55C636.763 334.527 640.722 333.307 644.244 332.039C640.791 331.71 637.05 331.496 633.053 331.457C628.164 331.414 623.639 331.65 619.535 332.039C622.907 329.505 626.981 325.934 630.945 321.075C636.142 314.701 639.218 308.467 641.048 303.865C638.593 304.152 634.985 304.862 631.018 306.768C626.45 308.964 623.361 311.811 621.57 313.737C622.782 308.441 624.372 298.192 621.206 286.034C618.849 276.988 614.766 270.356 611.831 266.358C564.571 274.864 517.306 283.375 470.046 291.882L459.146 284.039C458.713 287.481 458.015 296.737 463.324 306.297C466.679 312.342 471.075 316.058 473.825 318.023C470.141 317.77 465.74 317.744 460.817 318.275C454.87 318.918 449.793 320.193 445.774 321.508C450.217 323.374 455.243 325.224 460.817 326.88C466.537 328.58 471.889 329.787 476.731 330.656C473.046 330.237 468.534 330.031 463.431 330.477C459.682 330.802 456.34 331.414 453.473 332.112C455.598 333.473 458.341 334.968 461.687 336.218C466.045 337.845 469.969 338.512 472.951 338.786C520.263 338.568 567.57 338.354 614.881 338.136Z" fill="#8DB17D"/>
<path d="M321.625 269.359V271.992H316.196V269.359H301.701V303.822H335.713V269.359H321.625Z" fill="#ECCB92"/>
<path d="M360.547 246.347V250.765H357.295V246.347H342.817V283.743H374.648V246.347H360.547Z" fill="#ECCB92"/>
<path d="M374.695 246.382V284.27H361.198L371.267 246.382L374.695 246.382Z" fill="#E9BA7C"/>
<path d="M354.39 283.743V289.985H345.525V283.743H322.996V338.782H376.919V283.743H354.39Z" fill="#ECCB92"/>
<path d="M376.837 283.842V338.855H354.681L368.127 283.842H376.837Z" fill="#E9BA7C"/>
<path d="M310.395 303.822V306.494H305.63V303.822H292.909V338.782H322.761V303.822H310.395Z" fill="#ECCB92"/>
<path d="M323.51 301.977L323.536 338.641H316.072L316.072 301.908L323.51 301.977Z" fill="#E9BA7C"/>
<path d="M630.838 396H533.708C532.727 374.38 538.07 367.517 520.246 348.077C506.021 341.65 465.505 301.061 459.253 271.722L455.873 264.097C454.544 264.285 451.057 264.602 447.333 262.718C442.38 260.214 440.628 255.642 440.255 254.593C439.677 253.017 438.888 250.239 439.12 246.741C439.312 243.851 440.127 241.587 440.774 240.161C438.991 239.356 436.215 237.815 433.67 234.976C429.668 230.511 428.686 225.571 428.399 223.494C428.082 221.414 427.71 217.051 429.599 212.102C431.039 208.339 433.19 205.792 434.586 204.379C432.508 203.463 428.614 201.399 425.422 197.182C420.447 190.611 420.661 183.427 420.798 181.372C420.854 180.139 421.278 173.126 427.165 168.066C431.669 164.196 436.707 163.751 438.348 163.674C440.131 163.648 443.233 163.832 446.716 165.309C450.405 166.872 452.779 169.141 453.992 170.481L453.679 165.587C453.679 165.587 434.724 156.948 418.373 148.861C402.023 140.774 407.692 125.336 409.054 122.883C410.417 120.434 419.166 110.493 431.784 116.401C444.403 122.309 454.215 127.403 454.215 127.403L558.564 188.671C558.564 161.332 575.57 149.678 584.07 149.623C592.571 149.567 591.59 153.108 591.59 153.108C591.59 153.108 593.278 187.092 595.296 198.201C597.314 209.311 617.371 248.304 618.84 264.097C620.31 279.89 619.547 307.718 615.516 325.69C617.152 348.672 630.833 396 630.833 396H630.838Z" fill="#CF908F"/>
<path d="M521.994 299.275C542.183 298.822 560.693 306.613 568.568 310.471C562.93 306.545 553.298 295.829 552.951 268.344C552.462 229.407 454.626 183.333 454.626 183.333C452.929 189.433 447.758 205.115 434.595 204.383C434.595 204.383 449.938 217.698 449.176 227.776C448.413 237.849 440.782 240.165 440.782 240.165C440.782 240.165 449.566 239.485 452.779 253.373C453.709 257.388 456.186 264.123 459.232 271.666L459.258 271.726V271.739C462.214 279.034 465.693 287.074 468.834 294.147C472.322 299.982 476.461 305.83 480.891 311.417C487.112 307.517 501.976 299.725 521.994 299.28V299.275Z" fill="#B47778"/>
<path d="M568.568 310.471C570.916 312.106 572.575 312.564 572.575 312.564C572.575 312.564 571.135 311.725 568.568 310.471Z" fill="#B47778"/>
<path d="M594.024 188.055C592.618 173.691 591.594 153.103 591.594 153.103C591.594 153.103 591.603 153.073 591.611 153.018C589.298 155.098 584.614 159.743 583.963 163.776C583.089 169.166 585.381 189.155 585.381 189.155L594.024 188.051V188.055Z" fill="#B47778"/>
<path d="M464.464 133.418L454.215 127.399C454.215 127.399 451.811 126.149 447.852 124.175L440.705 159.572C448.255 163.108 453.679 165.583 453.679 165.583C453.726 166.294 453.769 167.004 453.816 167.715L455.11 168.409C455.11 168.409 462.338 142.041 464.459 133.418H464.464Z" fill="#B47778"/>
<path d="M555.976 62.0471H458.032C453.652 62.0471 450.101 65.595 450.101 69.9715V267.496C450.101 271.873 453.652 275.421 458.032 275.421H555.976C560.356 275.421 563.907 271.873 563.907 267.496V69.9715C563.907 65.595 560.356 62.0471 555.976 62.0471Z" fill="#405488"/>
<path d="M557.034 75.537H457.617V261.935H557.034V75.537Z" fill="#F2F3F7"/>
<path d="M519.586 67.5141H494.422C493.454 67.5141 492.67 68.298 492.67 69.2651C492.67 70.2321 493.454 71.0161 494.422 71.0161H519.586C520.554 71.0161 521.338 70.2321 521.338 69.2651C521.338 68.298 520.554 67.5141 519.586 67.5141Z" fill="#F2F3F7"/>
<path d="M471.465 201.318L472.994 224.411L540.795 223.323L542.539 200.012L471.465 201.318Z" fill="#FBB82B"/>
<path fill-rule="evenodd" clip-rule="evenodd" d="M542.541 200.012L471.466 201.318L472.186 212.179C484.369 212.132 527.51 212.184 541.629 212.203L542.541 200.012Z" fill="#D99E21"/>
<path d="M557.034 223.143H457.295V261.935H557.034V223.143Z" fill="#8694C4"/>
<path d="M540.298 228.152H474.027C471.899 228.152 470.175 229.875 470.175 232.001V253.077C470.175 255.203 471.899 256.926 474.027 256.926H540.298C542.425 256.926 544.15 255.203 544.15 253.077V232.001C544.15 229.875 542.425 228.152 540.298 228.152Z" fill="white"/>
<path d="M484.58 250.38C488.929 250.38 492.455 246.869 492.455 242.537C492.455 238.205 488.929 234.694 484.58 234.694C480.231 234.694 476.705 238.205 476.705 242.537C476.705 246.869 480.231 250.38 484.58 250.38Z" fill="#CCD2EB"/>
<path d="M538.606 235.122H500.549V238.607H538.606V235.122Z" fill="#F3F2F5"/>
<path d="M538.606 240.495H500.549V243.98H538.606V240.495Z" fill="#F3F2F5"/>
<path d="M538.606 245.868H500.549V249.353H538.606V245.868Z" fill="#F3F2F5"/>
<path d="M521.295 105.492C521.625 107.329 521.625 113.344 521.625 113.344C521.625 114.44 520.576 115.228 519.526 114.924C518.947 114.757 518.506 114.29 518.373 113.708L516.437 105.193C516.128 103.84 517.534 102.735 518.78 103.356L519.959 103.613C520.516 103.891 521.047 104.11 521.295 105.492Z" fill="#383663"/>
<path d="M492.67 105.043C491.718 107.128 492.348 114.479 492.348 114.479C492.348 115.575 492.94 115.224 493.994 114.924C494.572 114.757 495.013 114.29 495.146 113.708L497.083 105.193C497.391 103.84 495.986 102.735 494.739 103.356L494.199 102.782C493.642 103.061 493.248 103.784 492.674 105.043H492.67Z" fill="#383663"/>
<path d="M551.207 166.722C551.695 158.99 549.681 149.948 546.082 147.551C542.483 145.153 514.251 136.116 514.251 136.116H498.664C498.664 136.116 471.627 145.209 468.358 146.9C465.089 148.587 461.271 159.371 462.253 166.722H551.202H551.207Z" fill="#FBB82B"/>
<path d="M485.908 166.722C485.908 166.722 481.709 156.648 479.259 154.195C482.202 162.308 480.347 166.722 480.347 166.722H485.908Z" fill="#D99E21"/>
<path d="M527.77 166.722C527.77 166.722 531.459 157.86 533.618 155.706C531.442 162.766 532.658 166.722 532.658 166.722H527.77Z" fill="#D99E21"/>
<path d="M513.982 128.816L514.47 140.962C514.47 140.962 511.308 142.833 508.257 142.833C505.206 142.833 506.021 142.833 503.407 142.833C500.793 142.833 499.208 136.116 499.208 136.116L499.696 128.384L506.685 130.944L513.977 128.821L513.982 128.816Z" fill="#B1787B"/>
<path d="M535.619 166.722H551.207C551.207 166.722 550.388 157.898 543.413 157.898C536.438 157.898 535.619 166.722 535.619 166.722Z" fill="#B8737A"/>
<path d="M477.952 166.722H462.253C462.253 166.722 463.615 157.898 469.665 157.898C475.715 157.898 477.952 166.722 477.952 166.722Z" fill="#B8737A"/>
<path d="M545.32 161.567C549.463 161.383 551.721 161.73 554.33 165.343C557.06 169.128 558.157 172.561 558.255 173.623C558.538 175.584 558.864 179.685 557.094 184.369C555.569 188.397 553.186 191.022 551.79 192.357L539.797 175.657C539.865 173.584 539.51 170.01 541.232 166.396C542.278 164.204 543.276 161.957 545.32 161.567Z" fill="#CF908F"/>
<path d="M466.396 161.567C467.291 161.764 469.001 162.278 470.466 163.746C473.599 166.88 472.737 171.444 472.647 171.881C469.207 178.512 465.766 185.144 462.33 191.775C461.507 191.047 460.689 190.221 459.905 189.288C454.994 183.47 453.962 176.62 453.756 172.604C454.073 171.367 455.419 166.688 460.007 163.746C462.518 162.137 464.978 161.7 466.405 161.567H466.396Z" fill="#CF908F"/>
<path d="M514.251 136.116C514.251 136.116 509.744 142.867 508.257 142.833C512.692 143.595 514.29 147.696 515.233 148.351C516.175 149.006 518.031 148.385 518.429 146.318C518.827 144.25 518.827 136.552 514.251 136.116Z" fill="white"/>
<path d="M499.208 136.116C499.208 136.116 503.716 142.867 505.202 142.833C500.768 143.595 499.169 147.696 498.227 148.351C497.284 149.006 495.429 148.385 495.03 146.318C494.632 144.25 494.632 136.552 499.208 136.116Z" fill="white"/>
<path d="M506.689 151.442C507.756 151.442 508.621 150.578 508.621 149.511C508.621 148.445 507.756 147.581 506.689 147.581C505.622 147.581 504.757 148.445 504.757 149.511C504.757 150.578 505.622 151.442 506.689 151.442Z" fill="white"/>
<path d="M506.689 162.877C507.756 162.877 508.621 162.013 508.621 160.946C508.621 159.88 507.756 159.016 506.689 159.016C505.622 159.016 504.757 159.88 504.757 160.946C504.757 162.013 505.622 162.877 506.689 162.877Z" fill="white"/>
<path d="M521.865 119.183C522.719 115.885 521.994 112.844 520.246 112.393C518.498 111.941 516.388 114.249 515.535 117.548C514.681 120.846 515.406 123.886 517.154 124.338C518.902 124.79 521.011 122.482 521.865 119.183Z" fill="#B47678"/>
<path d="M497.515 124.308C499.263 123.857 499.988 120.816 499.134 117.518C498.28 114.219 496.171 111.911 494.423 112.363C492.675 112.815 491.95 115.855 492.804 119.153C493.657 122.452 495.767 124.76 497.515 124.308Z" fill="#B47678"/>
<path d="M506.689 134.553C513.313 134.553 518.682 126.556 518.682 116.692C518.682 106.828 514.856 98.8309 506.689 98.8309C498.522 98.8309 494.696 106.828 494.696 116.692C494.696 126.556 500.066 134.553 506.689 134.553Z" fill="#CF908F"/>
<path fill-rule="evenodd" clip-rule="evenodd" d="M518.053 110.181C514.813 109.033 511.015 107.954 507.036 107.954C502.663 107.954 498.659 108.933 495.407 109.805C496.856 103.36 500.543 98.8309 506.689 98.8309C512.954 98.8309 516.665 103.537 518.053 110.181Z" fill="#B27677"/>
<path d="M511.638 126.663C511.638 126.111 509.705 126.093 507.327 126.093C504.949 126.093 503.017 126.111 503.017 126.663C503.017 127.215 504.949 128.088 507.327 128.088C509.705 128.088 511.638 127.215 511.638 126.663Z" fill="white"/>
<path d="M522.611 105.073C526.463 101.224 516.869 90.0416 507.327 90.0416C495.467 90.0416 487.292 101.879 491.894 105.218C494.456 107.076 500.875 103.549 507.327 103.549C513.78 103.549 520.246 107.44 522.611 105.073Z" fill="#FBB82B"/>
<path fill-rule="evenodd" clip-rule="evenodd" d="M490.803 100.974C492.472 101.028 494.603 100.429 497.023 99.7492C500.027 98.9052 503.475 97.9361 507.036 97.9361C510.414 97.9361 513.897 98.908 516.964 99.7638C519.374 100.436 521.526 101.037 523.17 101.039C521.607 96.2774 514.453 90.0417 507.328 90.0417C498.72 90.0417 492.053 96.2775 490.803 100.974Z" fill="#D99E21"/>
<path d="M516.158 166.825V173.871H497.845V166.825H462.308V207.782H551.695V166.825H516.158Z" fill="#ECCB92"/>
<path d="M551.653 166.752V207.637H493.814L546.027 166.752H551.653Z" fill="#E9BA7C"/>
<path d="M253.713 272.099H271.396V269.53H235.786V272.099H251.142V279.608L228.879 283.491L229.325 286.021L253.713 281.766V272.099Z" fill="#232A49"/>
<path d="M116.53 339.249C127.487 339.249 136.368 330.374 136.368 319.427C136.368 308.48 127.487 299.605 116.53 299.605C105.574 299.605 96.6923 308.48 96.6923 319.427C96.6923 330.374 105.574 339.249 116.53 339.249Z" fill="#242A4A"/>
<path d="M116.53 328.43C121.507 328.43 125.541 324.399 125.541 319.427C125.541 314.455 121.507 310.424 116.53 310.424C111.554 310.424 107.52 314.455 107.52 319.427C107.52 324.399 111.554 328.43 116.53 328.43Z" fill="white"/>
<path d="M139.968 318.438C139.968 305.714 129.646 295.401 116.912 295.401C107.922 295.401 100.146 300.543 96.341 308.039L138.271 327.112C139.363 324.432 139.968 321.508 139.968 318.438Z" fill="#FBB82B"/>
<path fill-rule="evenodd" clip-rule="evenodd" d="M132.819 324.632L138.271 327.112C139.364 324.432 139.968 321.508 139.968 318.438C139.968 305.714 129.646 295.401 116.912 295.401C116.641 295.401 116.371 295.406 116.102 295.415L115.472 297.623C115.472 297.623 131.657 310.01 132.819 324.632Z" fill="#D99E21"/>
<path fill-rule="evenodd" clip-rule="evenodd" d="M117.092 295.402C117.032 295.401 116.972 295.401 116.912 295.401C107.923 295.401 100.146 300.543 96.3414 308.039L99.2408 309.358C100.81 306.922 106.541 298.783 113.06 298.783C114.923 298.783 116.356 296.736 117.092 295.402Z" fill="#FFD06D"/>
<path d="M255.555 321.302H145.966C145.966 321.302 119.418 310.124 118.159 293.355C125.473 278.837 134.702 261.408 136.955 257.487C138.228 255.124 136.09 254.374 135.203 254.374H127.872L128.009 239.45H130.91C132.564 239.617 136.497 240.259 139.788 243.363C144.012 247.345 145.473 253.762 143.691 259.957C142.041 263.442 138.772 270.112 134.775 279.201C127.799 295.067 143.203 312.855 153.344 312.855C163.486 312.855 184.447 312.928 184.447 312.928C184.447 312.928 192.005 288.928 169.549 279.526V274.154L231.685 280.378L231.613 286.171C231.613 286.171 255.56 293.41 255.56 321.306L255.555 321.302Z" fill="#D99E21"/>
<path fill-rule="evenodd" clip-rule="evenodd" d="M139.149 257.397C139.693 256.31 139.149 254.374 135.199 254.374H135.194L135.194 254.374H127.872L128.009 239.45H130.91C132.564 239.617 136.497 240.259 139.788 243.363C144.012 247.345 145.473 253.762 143.691 259.957C143.389 260.594 143.034 261.337 142.63 262.182C140.822 265.96 138.042 271.773 134.774 279.201C132.662 284.006 132.602 288.988 133.827 293.598C133.94 300.789 136.588 311.098 143.952 320.376C137.736 317.375 119.206 307.298 118.159 293.355C120.077 289.546 122.128 285.537 124.149 281.625C125.391 281.397 126.957 280.863 127.486 279.616C128.153 278.046 133.634 267.763 136.847 261.734C138.093 259.398 138.997 257.701 139.149 257.397Z" fill="#FBB82B"/>
<path d="M130.918 239.45H127.812V254.374H130.918V239.45Z" fill="#232A49"/>
<path d="M140.306 247.177C139.546 246.405 138.304 246.394 137.533 247.153C136.761 247.912 136.752 249.153 137.512 249.925L145.235 257.767C145.996 258.539 147.237 258.549 148.009 257.791C148.781 257.032 148.79 255.791 148.03 255.019L140.306 247.177Z" fill="#232A49"/>
<path d="M139.736 245.684L138.622 245.042C139.102 244.211 139.565 243.38 140.015 242.571C142.5 238.115 144.642 234.262 147.354 234.262V235.546C145.396 235.546 143.327 239.262 141.137 243.196C140.683 244.014 140.216 244.849 139.736 245.684Z" fill="#232A49"/>
<path d="M147.354 232.511V239.81L149.535 241.552H151.935V233.003C151.935 233.003 151.091 232.078 150.954 232.022C150.816 231.967 147.684 232.022 147.684 232.022L147.359 232.511H147.354Z" fill="#232A49"/>
<path d="M230.447 281.967L172.154 276.054C170.123 275.823 168.662 273.991 168.893 271.962C169.116 269.997 170.847 268.554 172.823 268.691L229.56 272.137C230.743 272.218 231.814 272.856 232.444 273.858L233.995 276.324C235.644 278.948 233.528 282.318 230.447 281.967Z" fill="#232A49"/>
<path d="M180.629 321.281H255.847C255.847 321.281 255.667 286.021 221.038 286.021C195.677 285.011 180.633 321.281 180.633 321.281H180.629Z" fill="#FBB82B"/>
<path d="M184.091 321.495C185 314.174 192.245 304.987 197.382 299.888C207.614 289.352 221.218 287.883 234.796 292.216C242.86 294.613 248.593 300.898 249.514 309.405C249.784 311.554 249.758 313.81 249.767 315.929C249.762 317.95 249.818 319.791 250.067 321.503H240.748C241.245 315.737 243.803 310.466 242.183 304.82C240.97 300.594 237.423 297.49 233.416 295.739C229.059 293.731 224.333 292.383 219.504 292.28C211.526 291.963 204.443 295.752 199.336 301.754C195.561 306.091 192.438 311.16 190.707 316.619C190.227 318.138 189.803 320.056 190.034 321.499H184.091V321.495Z" fill="#D99E21"/>
<path d="M221.034 339.249C231.99 339.249 240.872 330.374 240.872 319.427C240.872 308.48 231.99 299.605 221.034 299.605C210.077 299.605 201.196 308.48 201.196 319.427C201.196 330.374 210.077 339.249 221.034 339.249Z" fill="#242A4A"/>
<path d="M221.034 328.43C226.01 328.43 230.044 324.399 230.044 319.427C230.044 314.455 226.01 310.424 221.034 310.424C216.057 310.424 212.023 314.455 212.023 319.427C212.023 324.399 216.057 328.43 221.034 328.43Z" fill="white"/>
<path d="M256.609 234.18V238.5H250.975V234.18H236.189V269.359H271.396V234.18H256.609Z" fill="#ECCB92"/>
<path d="M271.22 269.5H253.439C253.439 269.5 258.55 264.422 263.893 256.798C269.236 249.173 270.286 234.176 270.286 234.176H271.22V269.5Z" fill="#E9BA7C"/>
<path d="M252.895 269.616L253.79 233.452" stroke="#232A49" stroke-miterlimit="10"/>
</g>
<defs>
<clipPath id="clip0_5_16492">
<rect width="680" height="396" fill="white"/>
</clipPath>
</defs>
</svg>
